<mxfile host="app.diagrams.net" modified="2022-01-01T13:10:00.700Z" agent="5.0 (Windows NT 10.0; Win64; x64) AppleWebKit/537.36 (KHTML, like Gecko) Chrome/96.0.4664.110 Safari/537.36 Edg/96.0.1054.62" etag="u981fe1Ywuc0AHXOdgGc" version="16.0.3" type="github">
  <diagram name="Page-1" id="74e2e168-ea6b-b213-b513-2b3c1d86103e">
    <mxGraphModel dx="1411" dy="686" grid="0" gridSize="10" guides="1" tooltips="1" connect="1" arrows="1" fold="1" page="1" pageScale="1" pageWidth="1100" pageHeight="850" background="none" math="0" shadow="0">
      <root>
        <mxCell id="0" />
        <mxCell id="1" parent="0" />
        <mxCell id="UJpSf2f_OjT0jbmLjyZQ-4" style="edgeStyle=orthogonalEdgeStyle;rounded=0;orthogonalLoop=1;jettySize=auto;html=1;exitX=0.5;exitY=1;exitDx=0;exitDy=0;entryX=0.5;entryY=0;entryDx=0;entryDy=0;" edge="1" parent="1" source="UJpSf2f_OjT0jbmLjyZQ-1" target="UJpSf2f_OjT0jbmLjyZQ-3">
          <mxGeometry relative="1" as="geometry" />
        </mxCell>
        <mxCell id="UJpSf2f_OjT0jbmLjyZQ-1" value="start&lt;br&gt;" style="rounded=1;whiteSpace=wrap;html=1;" vertex="1" parent="1">
          <mxGeometry x="438" y="30" width="120" height="60" as="geometry" />
        </mxCell>
        <mxCell id="UJpSf2f_OjT0jbmLjyZQ-15" style="edgeStyle=orthogonalEdgeStyle;rounded=0;orthogonalLoop=1;jettySize=auto;html=1;exitX=0.5;exitY=1;exitDx=0;exitDy=0;entryX=0.5;entryY=0;entryDx=0;entryDy=0;" edge="1" parent="1" source="UJpSf2f_OjT0jbmLjyZQ-3" target="UJpSf2f_OjT0jbmLjyZQ-14">
          <mxGeometry relative="1" as="geometry" />
        </mxCell>
        <mxCell id="UJpSf2f_OjT0jbmLjyZQ-3" value="main screen" style="whiteSpace=wrap;html=1;" vertex="1" parent="1">
          <mxGeometry x="438" y="126" width="120" height="60" as="geometry" />
        </mxCell>
        <mxCell id="UJpSf2f_OjT0jbmLjyZQ-5" value="example1" style="whiteSpace=wrap;html=1;" vertex="1" parent="1">
          <mxGeometry x="248" y="315" width="83" height="40" as="geometry" />
        </mxCell>
        <mxCell id="UJpSf2f_OjT0jbmLjyZQ-10" value="&lt;span&gt;example5&lt;/span&gt;" style="whiteSpace=wrap;html=1;" vertex="1" parent="1">
          <mxGeometry x="665" y="315" width="83" height="40" as="geometry" />
        </mxCell>
        <mxCell id="UJpSf2f_OjT0jbmLjyZQ-11" value="&lt;span&gt;example2&lt;/span&gt;" style="whiteSpace=wrap;html=1;" vertex="1" parent="1">
          <mxGeometry x="355" y="315" width="83" height="40" as="geometry" />
        </mxCell>
        <mxCell id="UJpSf2f_OjT0jbmLjyZQ-12" value="&lt;span&gt;example4&lt;/span&gt;" style="whiteSpace=wrap;html=1;" vertex="1" parent="1">
          <mxGeometry x="558" y="315" width="83" height="40" as="geometry" />
        </mxCell>
        <mxCell id="UJpSf2f_OjT0jbmLjyZQ-13" value="&lt;span&gt;example3&lt;/span&gt;" style="whiteSpace=wrap;html=1;" vertex="1" parent="1">
          <mxGeometry x="459" y="315" width="83" height="40" as="geometry" />
        </mxCell>
        <mxCell id="UJpSf2f_OjT0jbmLjyZQ-16" style="edgeStyle=orthogonalEdgeStyle;rounded=0;orthogonalLoop=1;jettySize=auto;html=1;exitX=0.5;exitY=1;exitDx=0;exitDy=0;entryX=0.5;entryY=0;entryDx=0;entryDy=0;" edge="1" parent="1" source="UJpSf2f_OjT0jbmLjyZQ-14" target="UJpSf2f_OjT0jbmLjyZQ-5">
          <mxGeometry relative="1" as="geometry">
            <Array as="points">
              <mxPoint x="500" y="295" />
              <mxPoint x="290" y="295" />
            </Array>
          </mxGeometry>
        </mxCell>
        <mxCell id="UJpSf2f_OjT0jbmLjyZQ-17" style="edgeStyle=orthogonalEdgeStyle;rounded=0;orthogonalLoop=1;jettySize=auto;html=1;exitX=0.5;exitY=1;exitDx=0;exitDy=0;" edge="1" parent="1" source="UJpSf2f_OjT0jbmLjyZQ-14" target="UJpSf2f_OjT0jbmLjyZQ-10">
          <mxGeometry relative="1" as="geometry">
            <Array as="points">
              <mxPoint x="500" y="295" />
              <mxPoint x="707" y="295" />
            </Array>
          </mxGeometry>
        </mxCell>
        <mxCell id="UJpSf2f_OjT0jbmLjyZQ-14" value="用户选择题目测试" style="rhombus;whiteSpace=wrap;html=1;" vertex="1" parent="1">
          <mxGeometry x="438" y="204" width="123" height="58" as="geometry" />
        </mxCell>
      </root>
    </mxGraphModel>
  </diagram>
</mxfile>
